{"asset":{"generator":"Khronos glTF Blender I/O v1.7.33","version":"2.0"},"scene":0,"scenes":[{"name":"Scene","nodes":[0]}],"nodes":[{"mesh":0,"name":"barrierRed(Clone)","translation":[-0.3499999940395355,-0.009999999776482582,-0.6499999761581421]}],"materials":[{"name":"red","pbrMetallicRoughness":{"baseColorFactor":[0.9098039269447327,0.3333333432674408,0.32549020648002625,1],"metallicFactor":0}}],"meshes":[{"name":"Mesh noExport","primitives":[{"attributes":{"POSITION":0,"NORMAL":1,"TEXCOORD_0":2},"indices":3,"material":0}]}],"accessors":[{"bufferView":0,"componentType":5126,"count":52,"max":[0.25,0.13120000064373016,0],"min":[0,0,-0.12300000339746475],"type":"VEC3"},{"bufferView":1,"componentType":5126,"count":52,"type":"VEC3"},{"bufferView":2,"componentType":5126,"count":52,"type":"VEC2"},{"bufferView":3,"componentType":5123,"count":84,"type":"SCALAR"}],"bufferViews":[{"buffer":0,"byteLength":624,"byteOffset":0},{"buffer":0,"byteLength":624,"byteOffset":624},{"buffer":0,"byteLength":416,"byteOffset":1248},{"buffer":0,"byteLength":168,"byteOffset":1664}],"buffers":[{"byteLength":1832}]} 